# xmcd CD database file
#
# Track frame offsets:
#	150
#	25652
#	41486
#	64557
#	89500
#	114295
#	131092
#	159117
#	181044
#	206231
#	235108
#
# Disc length: 3510 seconds
#
# Revision: 0
# Processed by: cddbd v1.5.2PL0 Copyright (c) Steve Scherf et al.
# Submitted via: CDex 1.51
#
DISCID=830db40b
DTITLE=Tricycle - King Size
DYEAR=2006
DGENRE=Jazz
TTITLE0=4 and 3 and 4
TTITLE1=Belly Button
TTITLE2=Sivana's Dream
TTITLE3=Epilogue
TTITLE4=3 pinguins on a Sunday afternoon
TTITLE5=Tupyzinho
TTITLE6=Tribute to Vissotsky
TTITLE7=Pas ce soir, je suis crevé
TTITLE8=Le mystère du petit sac noir
TTITLE9=Ode à Lydie
TTITLE10=Rustic
EXTD=YEAR: 2006
EXTT0=
EXTT1=
EXTT2=
EXTT3=
EXTT4=
EXTT5=
EXTT6=
EXTT7=
EXTT8=
EXTT9=
EXTT10=
PLAYORDER=
